<svg id="svg" xmlns="http://www.w3.org/2000/svg" xmlns:xlink="http://www.w3.org/1999/xlink" width="400" height="400" viewBox="0, 0, 400,400"><g id="svgg"><path id="path0" d="M168.627 89.342 C 164.394 90.053,157.421 92.257,155.142 93.605 C 152.628 95.090,152.450 95.100,121.569 95.425 L 90.523 95.752 86.752 97.519 C 74.570 103.227,72.549 109.224,72.549 139.652 C 72.549 159.248,72.464 160.851,71.405 161.176 C 67.697 162.312,64.299 164.455,61.302 167.546 L 57.898 171.057 54.641 168.483 C 44.376 160.369,36.147 160.257,29.062 168.137 C 19.640 178.617,23.149 190.264,40.361 205.638 C 58.286 221.648,60.420 222.793,63.387 217.993 C 64.164 216.736,66.470 214.218,68.511 212.398 L 72.222 209.089 72.581 230.852 C 72.792 243.616,73.229 253.433,73.638 254.594 C 75.984 261.251,81.023 266.810,87.439 269.817 L 91.176 271.569 137.785 271.753 L 184.393 271.937 184.190 274.006 L 183.987 276.075 175.034 277.195 C 145.056 280.944,131.055 290.367,141.091 300.040 C 152.476 311.014,199.039 316.170,237.908 310.761 C 285.497 304.138,284.913 284.069,236.932 277.255 L 229.093 276.142 229.089 274.182 L 229.085 272.222 280.392 271.895 L 331.699 271.569 335.766 269.690 C 342.900 266.395,348.203 259.614,349.614 251.983 C 350.627 246.503,350.607 119.684,349.592 114.901 C 348.003 107.414,342.926 100.944,335.950 97.518 L 332.353 95.752 263.725 95.425 L 195.098 95.098 191.385 92.949 C 185.737 89.681,175.893 88.120,168.627 89.342 M186.033 95.425 C 198.050 99.547,201.588 110.785,195.409 125.201 L 194.143 128.155 190.733 125.459 C 176.567 114.262,159.929 113.816,145.943 124.257 C 141.752 127.386,142.036 127.422,141.538 123.693 C 138.918 104.081,164.286 87.964,186.033 95.425 M144.301 101.797 C 138.587 107.854,135.884 117.077,137.275 125.771 C 137.739 128.672,138.046 134.869,137.957 139.542 C 137.763 149.809,138.769 159.575,140.846 167.570 C 141.695 170.839,142.337 173.534,142.273 173.559 C 142.209 173.584,139.951 174.436,137.255 175.453 C 131.781 177.518,117.735 184.350,115.084 186.238 L 113.366 187.462 111.218 184.903 C 106.679 179.497,102.307 178.721,94.703 181.972 C 93.840 182.340,93.581 181.806,93.244 178.961 C 92.327 171.216,86.831 163.969,80.147 161.691 L 77.124 160.661 77.124 139.618 C 77.124 112.885,78.170 108.448,85.636 103.507 C 90.775 100.106,91.232 100.059,119.567 100.029 L 145.996 100.000 144.301 101.797 M332.963 101.347 C 337.049 102.876,341.602 106.935,343.332 110.592 C 345.685 115.564,345.791 119.070,345.606 186.030 L 345.425 251.961 344.012 255.017 C 339.269 265.280,335.095 266.940,313.399 267.187 L 296.405 267.380 294.547 263.793 C 292.827 260.470,288.102 255.357,284.374 252.780 L 282.800 251.693 286.059 248.763 C 287.851 247.151,289.999 244.548,290.832 242.978 C 291.866 241.029,293.486 239.409,295.936 237.872 C 304.770 232.332,311.455 222.867,313.163 213.484 C 313.900 209.432,314.165 208.929,315.868 208.335 C 324.186 205.436,335.638 198.443,339.787 193.730 C 347.237 185.265,344.014 178.090,329.688 171.248 C 312.924 163.242,305.529 155.831,293.065 134.546 C 278.099 108.990,268.890 102.419,248.039 102.418 C 218.150 102.418,204.375 119.951,204.236 158.170 C 204.189 171.104,204.010 173.850,203.103 175.558 L 202.026 177.586 197.062 175.885 C 192.739 174.403,192.148 174.014,192.484 172.876 C 196.014 160.949,197.862 147.064,197.158 137.766 C 196.796 132.980,196.892 132.478,199.048 127.939 C 203.377 118.824,204.218 109.409,201.297 102.778 L 200.074 100.000 264.718 100.000 C 328.400 100.000,329.416 100.020,332.963 101.347 M259.320 108.174 C 271.934 111.148,277.000 116.369,291.976 141.830 C 301.809 158.548,311.998 168.150,327.582 175.383 C 344.333 183.158,342.623 190.280,321.569 200.425 C 316.716 202.764,312.010 205.033,311.111 205.468 C 309.745 206.130,309.398 206.893,308.993 210.132 C 307.951 218.470,303.932 225.901,297.840 230.757 L 294.444 233.463 293.929 228.353 C 292.420 213.400,280.432 191.942,268.359 182.583 L 265.804 180.602 267.799 175.759 C 279.721 146.813,266.905 120.315,241.652 121.701 C 217.821 123.009,211.990 158.672,232.024 180.592 L 235.287 184.163 232.563 190.143 L 229.839 196.123 227.372 193.714 C 224.995 191.392,224.940 191.239,225.851 189.476 C 230.153 181.157,222.349 170.588,211.904 170.588 L 209.254 170.588 208.785 166.208 C 204.377 125.043,225.924 100.299,259.320 108.174 M90.570 110.177 C 87.597 113.150,89.519 139.463,92.621 138.273 C 93.144 138.072,93.694 137.908,93.844 137.908 C 93.995 137.908,94.118 132.933,94.118 126.851 C 94.118 112.232,92.702 113.725,106.562 113.725 C 118.955 113.725,120.808 113.152,118.275 110.099 C 117.062 108.638,92.038 108.709,90.570 110.177 M302.721 109.724 C 302.240 110.029,301.946 110.981,302.067 111.839 L 302.288 113.399 316.176 113.575 L 330.065 113.751 330.065 126.461 C 330.065 140.100,330.430 141.507,333.514 139.781 C 334.940 138.983,335.257 111.335,333.856 109.935 C 332.931 109.010,304.155 108.815,302.721 109.724 M176.759 123.003 C 180.425 124.210,187.238 128.274,190.850 131.409 C 195.004 135.015,191.813 164.550,186.102 175.357 C 177.219 192.163,156.642 191.577,148.171 174.278 C 143.910 165.575,141.152 144.335,143.012 134.546 C 144.725 125.526,164.191 118.867,176.759 123.003 M253.719 128.348 C 257.540 130.172,264.333 136.740,263.862 138.154 C 263.161 140.255,251.270 140.040,245.333 137.818 C 240.026 135.832,232.826 129.702,234.194 128.333 C 236.918 125.609,248.000 125.617,253.719 128.348 M233.579 135.570 C 240.492 142.373,249.787 145.270,260.514 143.965 C 267.682 143.093,266.997 142.014,266.972 154.139 C 266.922 177.589,257.137 190.769,244.409 184.529 C 228.911 176.932,219.990 151.905,227.267 136.438 C 229.753 131.156,229.175 131.235,233.579 135.570 M82.022 167.799 C 87.188 171.368,89.916 179.822,88.003 186.339 C 86.678 190.854,83.870 193.897,72.525 203.109 C 67.659 207.061,62.742 211.360,61.598 212.663 C 58.975 215.650,59.851 215.928,52.085 209.642 C 29.427 191.304,23.954 180.625,32.412 171.263 C 38.176 164.883,44.841 165.663,53.686 173.753 C 57.692 177.417,59.662 177.939,60.848 175.654 C 65.569 166.554,75.102 163.017,82.022 167.799 M216.856 176.401 C 224.212 180.155,223.900 188.574,216.259 192.525 C 213.156 194.130,205.670 183.277,206.793 178.803 C 207.638 175.437,212.631 174.245,216.856 176.401 M145.430 179.101 C 148.584 189.038,167.156 195.281,177.886 190.011 C 181.365 188.302,189.542 180.621,189.542 179.061 C 189.542 176.191,201.742 182.101,203.532 185.838 C 204.422 187.696,205.649 189.979,206.260 190.912 L 207.369 192.608 197.375 206.271 C 191.878 213.786,185.866 221.993,184.016 224.510 C 182.165 227.026,179.213 231.070,177.455 233.497 C 175.696 235.923,174.077 237.908,173.856 237.908 C 173.260 237.908,122.222 188.181,122.222 187.600 C 122.222 186.862,142.476 177.844,144.237 177.798 C 144.662 177.787,145.199 178.373,145.430 179.101 M104.160 185.215 C 113.445 189.095,110.591 197.807,95.967 210.222 C 89.240 215.933,90.288 215.771,85.733 211.803 C 83.694 210.026,81.040 207.737,79.836 206.714 L 77.645 204.856 82.336 200.957 C 84.916 198.813,88.655 194.936,90.646 192.342 C 95.652 185.818,100.051 183.498,104.160 185.215 M265.781 186.517 L 267.582 188.066 265.524 189.130 C 260.038 191.968,256.456 200.422,251.645 221.895 C 247.153 241.942,246.711 242.875,239.367 247.831 L 234.376 251.198 230.227 248.982 C 226.182 246.820,219.768 241.019,217.755 237.701 C 216.718 235.993,218.838 230.893,236.345 192.980 L 239.134 186.941 242.396 188.580 C 249.548 192.172,254.485 191.968,259.544 187.873 C 263.709 184.502,263.493 184.549,265.781 186.517 M180.196 193.193 L 171.830 197.428 162.648 194.673 C 151.404 191.299,151.213 191.353,151.525 197.816 C 152.215 212.145,152.179 212.119,163.652 206.401 L 172.415 202.034 180.816 204.596 C 193.738 208.538,193.503 208.668,192.627 198.039 C 191.726 187.096,192.015 187.209,180.196 193.193 M119.289 193.108 C 127.693 198.032,142.428 224.496,152.348 252.478 C 153.491 255.703,154.297 257.012,155.295 257.263 C 156.463 257.558,203.206 255.141,221.141 253.859 C 229.446 253.266,228.746 254.440,216.993 260.819 L 207.516 265.962 167.832 265.996 L 128.148 266.030 125.422 262.590 C 113.762 247.879,101.715 225.642,100.325 216.264 L 99.878 213.248 105.470 207.731 C 111.251 202.028,113.685 198.070,113.711 194.336 C 113.724 192.448,114.332 191.695,115.956 191.555 C 116.284 191.526,117.784 192.225,119.289 193.108 M273.052 193.824 C 281.060 199.434,274.758 226.517,260.867 246.187 C 253.358 256.820,232.688 267.610,220.649 267.182 L 215.359 266.993 224.183 262.139 C 229.036 259.469,234.183 256.552,235.621 255.656 C 250.154 246.600,250.750 245.812,254.243 231.046 C 255.349 226.373,257.021 219.314,257.960 215.359 C 260.836 203.244,264.648 194.385,267.476 193.246 C 269.138 192.576,271.641 192.836,273.052 193.824 M188.170 199.788 L 188.235 201.863 184.477 200.831 C 179.185 199.377,179.095 199.040,183.417 196.847 C 187.718 194.665,188.015 194.849,188.170 199.788 M224.753 197.698 C 228.063 201.289,228.790 198.348,219.577 218.641 L 211.703 235.985 213.405 239.112 C 214.341 240.831,216.533 243.690,218.276 245.465 C 222.113 249.373,222.089 249.430,216.529 249.605 C 214.088 249.681,199.889 250.453,184.976 251.318 C 170.062 252.184,157.667 252.683,157.430 252.427 C 157.194 252.170,156.254 249.902,155.342 247.386 C 152.294 238.979,148.954 231.126,144.386 221.630 C 141.894 216.451,139.939 212.131,140.040 212.030 C 140.141 211.929,145.367 216.902,151.654 223.080 C 177.064 248.051,173.839 246.452,180.407 237.338 C 190.735 223.006,193.373 219.390,201.818 207.991 L 210.666 196.047 212.249 197.533 L 213.832 199.020 217.537 196.944 C 222.197 194.332,221.593 194.269,224.753 197.698 M164.577 200.307 C 164.721 200.451,163.071 201.460,160.912 202.550 C 156.514 204.770,156.209 204.606,156.209 200.015 L 156.209 197.523 160.263 198.784 C 162.492 199.478,164.433 200.163,164.577 200.307 M284.606 212.516 C 294.522 234.210,289.395 246.575,268.327 251.776 C 261.509 253.459,261.327 253.316,264.684 248.924 C 270.731 241.014,278.993 221.783,280.578 211.928 C 281.530 206.009,281.639 206.025,284.606 212.516 M84.993 217.804 L 88.614 221.657 92.033 219.305 C 94.364 217.702,95.534 217.220,95.712 217.791 C 95.856 218.251,96.610 220.686,97.386 223.203 C 99.046 228.578,104.364 239.406,109.079 247.007 C 110.916 249.968,112.418 252.515,112.418 252.666 C 112.418 252.817,108.307 252.941,103.283 252.941 L 94.147 252.941 93.969 241.021 C 93.780 228.394,93.375 227.045,90.491 229.438 C 89.231 230.484,89.081 255.486,90.327 256.732 C 90.882 257.287,94.757 257.516,103.597 257.516 L 116.083 257.516 118.989 261.574 C 120.588 263.805,122.142 266.031,122.443 266.520 C 123.530 268.286,93.258 267.349,89.216 265.492 C 78.901 260.751,77.519 256.939,77.242 232.468 C 76.961 207.624,76.408 208.670,84.993 217.804 M330.531 229.164 C 330.275 229.420,330.065 234.875,330.065 241.285 L 330.065 252.941 316.797 252.941 C 303.137 252.941,301.961 253.153,301.961 255.616 C 301.961 257.375,303.197 257.516,318.601 257.516 C 330.183 257.516,333.327 257.332,333.921 256.616 C 334.441 255.989,334.614 251.670,334.491 242.400 L 334.314 229.085 332.655 228.892 C 331.743 228.785,330.787 228.908,330.531 229.164 M280.731 255.971 C 285.529 259.147,291.718 266.016,290.698 267.036 C 290.533 267.201,279.103 267.259,265.297 267.165 L 240.196 266.993 243.464 265.488 C 245.261 264.660,248.791 262.713,251.307 261.161 C 255.062 258.846,256.664 258.264,260.242 257.916 C 262.640 257.682,267.199 256.793,270.373 255.940 C 277.793 253.945,277.670 253.945,280.731 255.971 M224.183 280.711 L 224.183 289.526 221.505 291.217 C 214.052 295.921,199.668 295.754,191.971 290.872 L 188.889 288.918 188.889 280.407 L 188.889 271.895 206.536 271.895 L 224.183 271.895 224.183 280.711 M184.314 285.707 C 184.314 295.847,198.947 301.832,215.277 298.372 C 225.201 296.269,229.473 292.179,228.921 285.308 C 228.520 280.310,227.759 280.588,237.825 282.066 C 260.613 285.412,272.971 291.903,266.455 297.103 C 247.971 311.851,162.112 311.824,144.571 297.065 C 140.994 294.055,142.676 291.118,149.771 287.981 C 156.741 284.900,173.542 281.221,181.209 281.096 L 184.314 281.046 184.314 285.707 " stroke="none" fill="#000000" fill-rule="evenodd"></path></g></svg>