<?xml version="1.0" encoding="utf-8"?>
<!-- Generator: Adobe Illustrator 23.0.3, SVG Export Plug-In . SVG Version: 6.00 Build 0)  -->
<svg version="1.2" baseProfile="tiny" id="Calque_1"
	 xmlns="http://www.w3.org/2000/svg" xmlns:xlink="http://www.w3.org/1999/xlink" x="0px" y="0px" viewBox="0 0 72 66"
	 xml:space="preserve">
<g>
	<path fill="none" stroke="#000000" stroke-width="2" stroke-linejoin="round" stroke-miterlimit="10" d="M29.7,8.5
		c-2.9,0-5.3,2.4-5.3,5.3c0,2.9,2.4,5.3,5.3,5.3c2.9,0,5.3-2.4,5.3-5.3C35,10.8,32.6,8.5,29.7,8.5z"/>
	<path fill="none" stroke="#000000" stroke-width="2" stroke-linejoin="round" stroke-miterlimit="10" d="M38.8,28.4
		c0-3.3-2.4-5.4-5.8-6.3l-3.3,2.6l-3.3-2.6c-3.4,0.8-5.8,3-5.8,6.3"/>
	<path fill="none" stroke="#000000" stroke-width="2" stroke-linejoin="round" stroke-miterlimit="10" d="M8.2,36.3
		c0,3.7,3,6.6,6.6,6.6c3.7,0,6.6-3,6.6-6.6c0-3.7-3-6.6-6.6-6.6C11.2,29.7,8.2,32.6,8.2,36.3z"/>
	<path fill="none" stroke="#000000" stroke-width="2" stroke-linejoin="round" stroke-miterlimit="10" d="M25.8,54.8v-1.9
		c0-4.8-4.9-7-10.9-7c-6,0-10.9,2.2-10.9,7v1.9"/>
	<path fill="none" stroke="#000000" stroke-width="2" stroke-linejoin="round" stroke-miterlimit="10" d="M31.4,61.8v-5.2
		c0-1.3,1.1-2.4,2.4-2.4h18.7c1.3,0,2.4,1.1,2.4,2.4v5.2"/>
	<path fill="none" stroke="#000000" stroke-width="2" stroke-linejoin="round" stroke-miterlimit="10" d="M3.1,61.8v-5.2
		c0-1.3,1.1-2.4,2.4-2.4h18.7c1.3,0,2.4,1.1,2.4,2.4v5.2"/>
	<path fill="none" stroke="#000000" stroke-width="2" stroke-linejoin="round" stroke-miterlimit="10" d="M33.1,54.2
		c0-5.2,3.5-7,11.7-8.9c9.7-2.2,12.1-9.4,13.8-14c0.5-1.3,1.6-1.8,2.5-1.8c0.6,0,1.2,0.2,1.6,0.4c1.3,0.7,1.4,2.4,1,3.9
		c-3,11.9-13,17.5-13,17.5v2.9"/>
	<path fill="none" stroke="#000000" stroke-width="2" stroke-linejoin="round" stroke-miterlimit="10" d="M44.3,28.8
		c-3.6,0-6.5,2.9-6.5,6.5s2.9,6.5,6.5,6.5c3.6,0,6.5-2.9,6.5-6.5S47.8,28.8,44.3,28.8z"/>
	<polyline fill="none" stroke="#000000" stroke-width="2" stroke-linejoin="round" stroke-miterlimit="10" points="8.7,34 5,34 
		5,4.2 54,4.2 54,34 50.3,34 	"/>
	
		<line fill="none" stroke="#000000" stroke-width="2" stroke-linejoin="round" stroke-miterlimit="10" x1="21" y1="34" x2="38.2" y2="34"/>
</g>
</svg>
