<svg id="svg" xmlns="http://www.w3.org/2000/svg" xmlns:xlink="http://www.w3.org/1999/xlink" width="400" height="330" viewBox="0, 0, 400,260">
     <circle cx="35%" cy="50%" r="165"/>
    <g id="svgg">
    
        <path id="path0" d="M75.036 5.692 C 22.861 24.313,2.201 81.691,39.939 103.165 C 54.968 111.718,54.964 111.741,36.006 124.849 C -4.875 153.118,-10.989 218.480,24.752 245.164 C 61.386 272.515,126.171 241.885,142.719 189.388 C 148.530 170.952,156.000 160.820,156.000 171.374 C 156.000 184.475,130.383 243.685,122.442 248.939 C 119.704 250.750,120.770 251.901,125.220 251.939 C 132.806 252.003,144.456 229.461,157.745 189.000 C 164.475 168.513,165.018 168.000,179.994 168.000 C 188.438 168.000,197.934 167.007,201.098 165.793 C 205.530 164.092,207.460 168.911,209.510 186.793 C 214.923 234.024,231.752 264.449,248.837 257.893 C 254.001 255.911,253.827 253.619,247.540 240.802 C 230.383 205.825,227.738 107.660,242.082 38.220 C 248.411 7.576,247.704 -0.000,238.512 0.000 C 222.700 0.000,199.276 42.748,176.046 114.000 C 160.182 162.658,161.777 160.838,138.776 156.541 C 119.489 152.937,112.068 157.857,130.000 162.357 C 156.321 168.964,115.627 229.465,77.724 240.077 C -1.700 262.315,13.035 135.186,92.645 111.334 C 117.779 103.804,112.473 95.655,84.351 98.594 C 16.287 105.709,31.467 22.809,100.579 9.975 C 116.757 6.971,132.000 12.872,132.000 22.141 C 132.000 30.111,139.649 29.569,142.793 21.377 C 149.694 3.391,108.319 -6.187,75.036 5.692 M214.128 77.666 C 210.757 103.375,208.000 132.418,208.000 142.205 L 208.000 160.000 188.000 160.000 C 177.000 160.000,168.000 159.454,168.000 158.786 C 168.000 147.056,215.409 26.075,218.711 29.378 C 219.560 30.227,217.498 51.957,214.128 77.666 " stroke="rgba(40, 88, 121, 0.527)" fill="#fff" fill-rule="evenodd">
        </path>
    </g>
    
</svg>