<svg id="svg" xmlns="http://www.w3.org/2000/svg" xmlns:xlink="http://www.w3.org/1999/xlink" width="400" height="400" viewBox="0, 0, 400,400"><g id="svgg"><path id="path0" d="M214.507 64.139 C 209.938 64.969,206.010 67.345,201.845 71.797 L 197.933 75.978 195.535 73.686 C 178.796 57.684,155.738 69.467,159.748 91.975 L 160.239 94.733 119.172 94.916 L 78.105 95.098 74.183 97.166 C 69.164 99.813,65.255 103.867,62.942 108.824 L 61.111 112.745 60.939 181.665 C 60.749 257.513,60.579 254.022,64.776 260.358 C 67.105 263.874,72.036 267.802,76.471 269.674 C 79.260 270.851,82.009 270.925,129.902 271.101 L 180.392 271.288 180.392 273.186 C 180.392 274.958,180.188 275.109,177.288 275.479 C 143.189 279.831,128.135 287.587,134.770 297.386 C 147.511 316.205,249.576 317.163,266.328 298.620 C 274.617 289.445,261.657 280.726,233.782 276.725 L 225.490 275.535 225.490 273.388 L 225.490 271.242 270.778 271.242 C 325.713 271.242,326.001 271.194,333.373 260.899 C 338.186 254.177,337.946 258.522,337.754 181.665 L 337.582 112.745 335.683 108.633 C 333.514 103.935,328.731 99.140,323.747 96.666 L 320.588 95.098 278.540 94.916 L 236.493 94.734 237.037 91.975 C 240.326 75.307,229.136 61.481,214.507 64.139 M224.176 69.931 C 233.437 74.656,235.862 87.199,229.585 97.918 C 226.882 102.534,218.407 110.610,207.943 118.541 L 198.572 125.644 193.177 121.942 C 185.743 116.840,177.799 110.406,172.588 105.267 C 151.720 84.687,172.075 58.018,193.340 78.078 C 198.539 82.983,199.575 83.150,201.589 79.410 C 206.271 70.717,216.940 66.239,224.176 69.931 M165.032 103.627 C 170.436 110.782,195.245 130.719,198.743 130.719 C 201.534 130.719,226.999 109.366,231.357 103.371 L 234.282 99.346 238.710 99.346 C 241.145 99.346,243.137 99.490,243.137 99.666 C 243.137 99.841,241.326 103.003,239.112 106.692 C 234.539 114.312,234.326 115.684,236.587 123.004 C 237.935 127.367,242.571 135.118,244.209 135.746 C 246.529 136.637,244.195 177.593,241.448 184.207 C 240.950 185.406,239.176 187.906,237.506 189.762 C 235.836 191.619,233.355 194.778,231.993 196.783 C 229.587 200.323,229.349 200.481,223.745 202.257 C 215.268 204.944,211.967 206.845,206.790 212.020 C 198.507 220.302,192.342 236.987,196.826 238.988 C 199.144 240.022,198.794 246.240,196.235 249.491 C 193.807 252.578,190.825 257.999,188.841 262.934 L 187.320 266.719 182.712 266.529 L 178.105 266.340 178.313 262.092 C 179.182 244.367,171.798 225.108,160.801 216.415 L 157.685 213.952 160.508 212.166 C 175.465 202.704,177.212 160.378,163.362 143.012 C 162.250 141.618,161.438 139.816,161.438 138.743 C 161.438 121.147,142.544 115.829,119.078 126.820 C 103.412 134.158,98.039 140.497,98.039 151.645 C 98.039 166.273,107.090 187.889,119.186 202.147 L 122.845 206.460 119.756 206.911 C 104.861 209.085,87.832 219.165,72.059 235.147 L 65.359 241.935 65.359 178.600 C 65.359 106.061,64.931 111.445,71.197 105.173 C 77.188 99.175,74.744 99.457,121.259 99.398 L 161.799 99.346 165.032 103.627 M298.692 112.582 C 298.691 149.315,295.342 156.119,266.341 178.330 L 261.113 182.333 260.651 180.606 C 260.397 179.657,259.881 175.027,259.505 170.318 C 258.714 160.404,257.030 150.976,254.520 142.394 C 254.246 141.457,254.736 141.366,258.463 141.665 C 265.459 142.227,265.606 137.946,258.616 137.180 C 250.996 136.346,245.856 132.535,242.387 125.148 C 238.573 117.027,238.928 115.405,247.493 101.797 L 249.036 99.346 273.864 99.346 L 298.693 99.346 298.692 112.582 M319.449 100.993 C 326.170 102.527,325.813 101.748,324.570 112.180 C 322.167 132.351,318.620 152.761,316.268 159.950 C 313.201 169.327,290.064 184.923,247.261 206.467 C 235.959 212.155,235.546 212.434,233.052 216.080 C 224.417 228.698,212.163 237.332,204.169 236.431 C 199.972 235.958,199.674 235.446,200.974 230.948 C 204.795 217.719,211.945 210.797,226.512 206.223 C 246.140 200.060,274.039 180.874,291.846 161.292 C 301.349 150.842,303.268 142.766,303.268 113.232 L 303.268 99.151 309.155 99.569 C 312.392 99.798,317.025 100.439,319.449 100.993 M332.161 112.135 C 333.156 115.013,333.279 119.107,333.305 150.285 L 333.333 185.211 328.709 180.568 C 326.165 178.015,322.501 175.096,320.565 174.083 C 316.582 171.998,316.599 172.126,319.350 165.033 C 322.415 157.126,325.875 139.333,328.533 117.801 C 329.774 107.749,330.339 106.867,332.161 112.135 M79.108 111.068 C 76.968 115.066,78.534 139.260,80.929 139.206 C 82.852 139.162,83.088 137.834,83.209 126.408 L 83.333 114.706 95.028 114.379 C 107.500 114.031,109.421 113.473,107.235 110.839 C 105.790 109.098,80.050 109.307,79.108 111.068 M147.046 126.202 C 156.251 128.176,158.807 135.875,153.789 146.513 C 149.240 156.156,148.723 159.103,148.707 175.490 C 148.689 193.775,147.395 197.266,138.414 203.263 C 131.011 208.207,126.020 205.323,116.369 190.523 C 103.205 170.336,98.816 147.496,106.681 140.110 C 116.827 130.582,136.255 123.888,147.046 126.202 M252.941 155.591 C 253.645 159.026,254.407 164.320,254.634 167.356 L 255.046 172.876 251.295 176.091 L 247.544 179.306 247.911 176.745 C 248.112 175.336,248.656 167.284,249.119 158.853 C 250.054 141.793,250.104 141.751,252.941 155.591 M162.935 151.116 C 168.848 162.815,169.710 186.803,164.698 200.198 C 161.161 209.652,151.107 212.812,141.895 207.365 C 141.751 207.280,143.301 205.607,145.341 203.648 C 147.801 201.284,149.758 198.586,151.158 195.631 L 153.268 191.176 153.311 176.471 C 153.357 160.538,153.666 158.385,157.020 150.585 C 159.514 144.784,159.746 144.804,162.935 151.116 M311.325 179.575 C 310.871 186.491,309.910 188.761,305.963 192.243 C 298.045 199.228,284.676 202.683,275.654 200.074 C 271.712 198.934,271.742 198.816,276.642 196.138 C 287.250 190.342,307.998 177.012,309.809 174.831 C 311.382 172.935,311.697 173.920,311.325 179.575 M324.636 182.941 C 326.367 184.595,329.033 187.819,330.559 190.107 L 333.333 194.267 333.333 222.272 C 333.333 257.282,332.880 259.014,322.377 264.186 L 318.003 266.340 268.479 266.523 C 226.504 266.678,218.954 266.567,218.954 265.796 C 218.954 261.784,224.706 251.643,229.767 246.732 C 239.197 237.581,243.277 227.434,241.593 217.320 L 241.157 214.706 254.252 208.036 L 267.346 201.367 269.544 202.663 C 285.660 212.172,315.653 198.721,315.680 181.972 C 315.683 179.785,315.877 177.805,316.110 177.572 C 316.790 176.892,321.228 179.686,324.636 182.941 M255.879 181.209 C 256.114 182.377,256.439 183.809,256.601 184.390 C 256.805 185.123,255.641 186.248,252.794 188.069 C 246.141 192.325,239.140 196.220,238.783 195.864 C 238.115 195.196,253.618 179.193,255.013 179.111 C 255.254 179.097,255.644 180.041,255.879 181.209 M142.285 212.472 C 162.579 217.571,176.158 239.335,173.445 262.415 L 173.023 266.013 154.812 266.013 C 144.796 266.013,136.606 265.792,136.611 265.523 C 136.684 261.835,141.534 248.074,144.584 242.901 C 146.733 239.257,146.767 237.026,144.678 236.728 C 141.917 236.335,136.280 247.405,133.484 258.713 L 131.729 265.807 110.141 266.229 C 97.587 266.474,86.979 266.394,84.791 266.038 C 74.734 264.401,66.013 256.983,66.013 250.066 C 66.013 248.120,77.163 235.764,84.012 230.119 C 104.317 213.385,123.181 207.672,142.285 212.472 M236.952 226.573 C 233.414 245.431,202.637 260.493,202.617 243.377 L 202.614 241.329 206.786 241.063 C 215.001 240.540,226.890 232.355,234.466 222.006 L 236.928 218.642 237.136 221.561 C 237.251 223.167,237.168 225.422,236.952 226.573 M319.739 229.542 C 319.187 230.094,318.954 233.784,318.954 241.961 L 318.954 253.595 305.936 253.595 C 298.776 253.595,292.452 253.773,291.884 253.991 C 290.543 254.506,290.543 257.259,291.884 257.773 C 293.949 258.566,321.916 258.215,322.745 257.386 C 324.253 255.877,323.814 230.263,322.265 229.435 C 320.690 228.592,320.689 228.592,319.739 229.542 M201.966 252.621 C 204.004 255.076,212.953 256.179,217.270 254.508 C 218.216 254.142,218.428 254.252,218.127 254.952 C 217.906 255.464,216.813 258.076,215.698 260.758 C 214.582 263.440,213.557 265.746,213.420 265.883 C 213.090 266.213,193.272 266.039,192.936 265.703 C 192.196 264.963,199.496 251.634,200.642 251.634 C 200.920 251.634,201.516 252.078,201.966 252.621 M220.915 279.266 C 220.915 288.576,220.598 289.328,215.802 291.391 C 206.496 295.394,191.543 294.158,186.340 288.955 C 185.092 287.706,184.967 286.841,184.967 279.412 L 184.967 271.242 202.941 271.242 L 220.915 271.242 220.915 279.266 M180.392 284.073 C 180.392 294.197,191.720 300.054,207.687 298.185 C 219.893 296.757,225.163 292.854,225.163 285.244 C 225.163 279.520,224.280 279.821,235.621 281.673 C 268.838 287.095,272.951 296.538,244.988 303.180 C 209.276 311.661,143.842 306.294,138.441 294.439 C 136.052 289.196,154.942 282.182,176.797 280.196 C 178.235 280.065,179.632 279.909,179.902 279.848 C 180.172 279.788,180.392 281.689,180.392 284.073 " stroke="none" fill="#000000" fill-rule="evenodd"></path></g></svg>