<svg id="svg" xmlns="http://www.w3.org/2000/svg" xmlns:xlink="http://www.w3.org/1999/xlink" width="400" height="430.7692307692308" viewBox="0, 0, 400,430.7692307692308"><g id="svgg"><path id="path0" d="M175.034 38.570 C 160.034 39.290,135.803 40.995,121.188 42.358 C 106.573 43.722,83.885 45.169,70.769 45.574 C 37.061 46.614,37.709 46.279,34.045 64.615 C 26.550 102.131,22.127 263.626,28.335 273.100 C 35.276 283.693,58.278 287.813,135.385 292.273 C 175.313 294.582,173.299 294.068,174.528 302.262 C 176.829 317.608,171.080 325.975,151.538 335.720 C 127.876 347.519,124.190 359.048,143.077 362.183 C 153.755 363.956,258.915 360.724,263.498 358.483 C 273.476 353.603,270.812 345.846,256.817 339.022 C 240.128 330.884,232.916 317.529,236.082 300.622 L 236.973 295.860 260.410 294.835 C 320.568 292.203,365.540 284.119,371.463 274.871 C 375.447 268.652,375.573 254.728,372.381 173.274 C 368.136 64.947,366.572 58.140,343.185 46.209 C 327.186 38.047,254.588 34.749,175.034 38.570 M318.936 50.941 C 340.621 54.294,351.303 60.583,355.232 72.308 C 359.815 85.987,367.487 243.452,364.321 258.858 C 361.608 272.059,351.820 277.882,326.154 281.563 C 304.814 284.623,186.340 286.162,166.154 283.641 C 156.423 282.426,125.879 280.183,98.277 278.657 C 43.519 275.630,39.992 274.883,35.672 265.400 C 31.263 255.724,33.232 139.568,38.439 102.224 C 44.902 55.860,43.319 60.576,52.769 59.523 C 57.169 59.033,76.000 56.884,94.615 54.748 C 139.307 49.618,133.695 49.841,226.628 49.515 C 279.999 49.328,311.668 49.818,318.936 50.941 M188.462 68.563 C 186.769 68.811,164.615 70.132,139.231 71.499 C 47.462 76.440,52.142 76.023,49.313 79.517 C 46.010 83.596,41.742 223.429,44.665 231.799 C 48.429 242.576,41.982 242.073,194.395 243.492 C 291.811 244.399,333.424 244.282,339.190 243.085 C 358.201 239.139,359.416 231.449,353.848 150.241 C 349.628 88.691,346.654 76.837,333.815 70.387 C 328.971 67.953,203.364 66.377,188.462 68.563 M333.300 79.583 C 340.501 83.709,344.078 105.944,346.237 160.000 C 347.132 182.423,348.475 205.163,349.222 210.534 C 352.929 237.201,354.276 237.037,143.103 235.640 C 46.164 234.998,49.796 236.058,50.209 208.532 C 52.039 86.376,52.110 85.627,62.106 82.905 C 78.019 78.572,326.228 75.531,333.300 79.583 M147.692 118.586 C 110.142 135.584,131.314 188.288,187.783 218.386 L 196.510 223.037 210.238 208.826 C 247.127 170.641,253.099 147.204,231.011 127.308 C 220.899 118.199,213.164 119.409,195.539 132.853 C 187.812 138.748,187.115 138.992,185.539 136.348 C 173.612 116.331,163.332 111.506,147.692 118.586 M171.531 130.762 C 174.283 133.429,178.415 139.328,180.713 143.869 L 184.890 152.126 196.306 143.054 C 213.967 129.020,224.769 128.193,232.358 140.292 C 241.126 154.271,233.026 172.596,206.396 199.028 L 192.651 212.671 183.072 207.565 C 160.385 195.474,135.377 163.264,135.392 146.154 C 135.406 128.504,158.885 118.505,171.531 130.762 M147.692 257.382 C 142.833 259.815,141.508 266.154,145.858 266.154 C 149.736 266.154,152.679 262.549,152.041 258.582 C 151.591 255.784,151.135 255.658,147.692 257.382 M231.795 259.487 C 228.700 262.582,233.020 270.769,237.748 270.769 C 241.169 270.769,243.474 265.156,241.538 261.538 C 239.961 258.591,233.956 257.326,231.795 259.487 M221.130 296.010 C 221.329 296.204,222.248 301.855,223.172 308.566 C 224.865 320.868,228.901 332.309,233.237 337.100 C 235.423 339.515,234.581 339.762,221.255 340.620 C 197.994 342.118,159.586 342.409,161.800 341.071 C 162.925 340.391,167.470 337.787,171.899 335.285 C 182.299 329.408,184.255 326.184,187.223 310.021 C 189.203 299.238,190.301 296.390,192.915 295.263 C 195.556 294.125,219.863 294.768,221.130 296.010 M257.825 349.615 C 261.102 352.905,204.817 355.217,171.926 353.144 C 145.158 351.456,151.402 349.495,184.172 349.298 C 199.987 349.203,213.298 348.754,213.752 348.299 C 215.002 347.049,256.504 348.289,257.825 349.615 " stroke="none" fill="#000000" fill-rule="evenodd"></path></g></svg>