<svg id="svg" xmlns="http://www.w3.org/2000/svg" xmlns:xlink="http://www.w3.org/1999/xlink" width="400" height="400" viewBox="0, 0, 400,400">
<g id="svgg">
<path id="path0" d="M182.680 22.622 C 115.793 27.835,92.854 58.015,103.017 127.435 C 103.682 131.980,103.793 134.356,103.348 134.505 C 99.247 135.872,95.453 141.187,95.436 145.588 L 95.425 148.366 92.778 148.366 C 85.473 148.366,84.314 150.583,84.314 164.557 C 84.314 179.447,85.070 181.046,92.114 181.046 L 95.425 181.046 95.425 183.848 C 95.425 192.129,99.523 194.976,112.092 195.425 L 121.242 195.752 121.738 200.327 C 123.177 213.594,127.508 220.577,143.426 235.301 L 153.595 244.706 153.595 250.131 C 153.595 256.603,154.086 256.486,147.605 251.552 L 142.346 247.549 140.557 249.428 C 126.785 263.897,113.009 280.547,113.950 281.586 C 114.901 282.637,113.551 283.201,93.328 290.211 C 62.357 300.947,55.880 305.735,49.845 322.354 L 48.113 327.124 47.865 352.451 L 47.617 377.778 200.000 377.778 L 352.383 377.778 352.135 352.451 C 351.861 324.417,351.754 323.644,346.977 315.239 C 340.113 303.162,335.266 300.158,306.536 290.179 C 282.472 281.821,284.352 282.620,285.965 281.441 C 287.028 280.663,276.661 267.507,271.232 262.745 C 271.027 262.565,267.978 259.109,264.457 255.065 C 256.905 246.392,258.523 246.850,252.339 251.634 C 246.081 256.475,246.405 256.521,246.405 250.796 C 246.405 246.152,246.446 246.033,248.091 245.897 C 269.572 244.119,291.361 220.009,291.489 197.876 C 291.503 195.484,291.562 195.425,293.954 195.414 C 299.624 195.389,304.575 189.998,304.575 183.848 L 304.575 181.046 308.007 181.031 C 314.815 181.002,315.686 179.118,315.686 164.432 L 315.686 152.962 313.835 150.890 C 312.277 149.146,311.410 148.771,308.354 148.518 L 304.725 148.217 304.437 144.744 C 304.098 140.657,301.749 137.103,298.301 135.458 C 297.079 134.875,296.078 134.224,296.078 134.010 C 296.078 133.797,296.683 129.513,297.423 124.491 C 306.534 62.603,285.592 31.613,229.412 23.847 C 222.188 22.849,190.450 22.017,182.680 22.622 M228.105 29.777 C 278.462 36.355,298.053 61.988,292.513 114.052 C 291.143 126.928,290.025 134.051,289.379 134.015 C 289.109 133.999,286.454 133.987,283.478 133.987 L 278.067 133.987 277.245 127.953 C 275.481 115.000,269.536 101.361,261.310 91.394 L 258.792 88.343 261.129 85.838 C 266.911 79.642,275.444 64.112,273.921 62.558 C 272.462 61.071,268.556 61.244,268.145 62.814 C 259.442 96.097,191.091 128.771,133.171 127.336 C 119.489 126.998,120.374 127.451,121.033 121.114 C 124.328 89.417,139.231 64.947,160.977 55.527 C 165.612 53.519,165.922 54.210,157.536 47.873 L 150.397 42.479 148.728 44.667 C 146.626 47.422,146.539 47.080,150.000 49.673 C 153.679 52.430,153.744 52.136,148.714 55.443 C 130.975 67.106,118.332 91.335,115.062 119.935 C 113.833 130.691,114.147 131.617,119.289 132.388 C 124.242 133.131,122.550 133.987,116.128 133.987 L 110.035 133.987 108.935 126.307 C 100.229 65.540,116.727 38.585,167.651 30.373 C 182.670 27.951,211.918 27.663,228.105 29.777 M212.418 41.503 L 212.418 44.444 215.196 44.448 C 223.484 44.460,236.609 47.620,241.425 50.763 L 243.961 52.419 245.918 50.462 C 248.132 48.248,247.965 47.647,244.532 45.480 C 238.871 41.907,225.125 38.562,216.098 38.562 L 212.418 38.562 212.418 41.503 M258.558 97.617 C 264.323 105.235,268.524 114.890,271.029 126.277 C 272.869 134.640,272.844 201.115,270.999 206.536 C 267.823 215.863,262.714 222.085,246.238 236.684 L 241.168 241.176 235.127 241.175 L 229.085 241.173 227.778 238.752 C 222.624 229.210,208.389 233.945,209.297 244.899 C 210.043 253.894,221.080 257.211,227.052 250.234 C 228.887 248.090,229.592 247.717,231.762 247.742 L 234.314 247.771 230.423 251.361 C 222.785 258.408,216.836 260.121,200.000 260.121 C 180.483 260.121,177.592 258.983,163.318 245.684 C 133.202 217.623,133.251 217.678,129.497 208.001 L 127.788 203.595 127.577 171.242 C 127.462 153.448,127.543 137.693,127.758 136.231 L 128.149 133.572 138.421 133.476 C 177.316 133.113,228.589 115.830,250.980 95.534 C 254.592 92.260,254.481 92.229,258.558 97.617 M151.106 136.064 C 147.754 136.813,147.253 137.739,148.695 140.527 C 149.555 142.190,150.059 142.528,151.193 142.202 C 155.938 140.841,161.144 141.036,166.013 142.758 C 168.709 143.711,171.356 144.635,171.895 144.811 C 172.506 145.011,173.420 144.283,174.316 142.883 L 175.756 140.634 174.316 139.734 C 168.083 135.840,158.725 134.360,151.106 136.064 M236.275 135.739 C 232.920 136.490,228.234 138.188,226.303 139.352 L 224.174 140.635 225.601 142.703 C 226.386 143.841,227.102 144.873,227.194 144.998 C 227.285 145.122,229.365 144.416,231.817 143.427 C 236.522 141.531,242.909 140.969,247.847 142.018 C 250.382 142.556,252.930 139.872,252.053 137.587 C 251.413 135.918,240.944 134.692,236.275 135.739 M121.569 165.033 L 121.569 189.542 113.144 189.542 C 105.825 189.542,104.518 189.379,103.177 188.294 L 101.634 187.045 101.446 165.538 C 101.208 138.389,100.240 140.523,112.793 140.523 L 121.569 140.523 121.569 165.033 M297.114 142.153 L 298.744 143.782 298.555 165.414 L 298.366 187.045 296.823 188.294 C 295.482 189.379,294.175 189.542,286.856 189.542 L 278.431 189.542 278.431 165.033 L 278.431 140.523 286.958 140.523 C 295.175 140.523,295.543 140.582,297.114 142.153 M95.278 164.893 L 95.458 175.163 92.827 175.163 L 90.196 175.163 90.196 165.142 C 90.196 153.894,90.037 154.504,92.946 154.573 L 95.098 154.624 95.278 164.893 M309.657 164.931 L 309.837 175.163 307.206 175.163 L 304.575 175.163 304.575 165.142 C 304.575 153.838,304.390 154.554,307.298 154.637 L 309.477 154.699 309.657 164.931 M154.248 159.804 L 154.248 162.745 163.399 162.745 L 172.549 162.745 172.549 159.804 L 172.549 156.863 163.399 156.863 L 154.248 156.863 154.248 159.804 M227.577 159.641 L 227.778 162.418 236.765 162.600 L 245.752 162.782 245.752 159.822 L 245.752 156.863 236.564 156.863 L 227.376 156.863 227.577 159.641 M285.326 199.183 C 283.307 216.198,273.697 229.824,259.197 236.228 C 253.277 238.843,253.531 238.060,260.765 231.390 C 272.336 220.722,278.431 209.377,278.431 198.509 C 278.431 195.627,278.701 195.425,282.537 195.425 L 285.772 195.425 285.326 199.183 M174.636 215.888 C 175.508 226.409,184.773 236.020,195.938 237.986 C 209.693 240.409,224.102 229.734,225.328 216.213 L 225.672 212.418 222.731 212.418 L 219.790 212.418 219.391 215.787 C 216.852 237.228,183.134 237.110,180.593 215.651 L 180.210 212.418 177.279 212.418 L 174.348 212.418 174.636 215.888 M222.090 240.690 C 223.752 242.693,223.698 244.989,221.947 246.740 C 218.251 250.436,212.605 244.942,216.114 241.065 C 217.359 239.689,221.066 239.457,222.090 240.690 M164.170 254.612 C 174.140 264.089,178.397 265.517,197.712 265.863 C 218.955 266.243,225.032 264.543,234.887 255.462 C 240.871 249.948,240.618 249.923,240.387 256.015 L 240.196 261.050 220.588 276.229 C 198.215 293.548,200.523 292.443,195.243 288.356 C 193.006 286.624,185.882 281.126,179.412 276.137 C 172.941 271.147,165.809 265.625,163.562 263.865 L 159.477 260.665 159.477 255.768 C 159.477 250.165,159.488 250.162,164.170 254.612 M150.865 261.652 C 160.601 269.246,176.565 281.579,186.417 289.119 C 190.988 292.618,194.858 295.689,195.015 295.944 C 195.309 296.420,172.918 321.064,171.832 321.462 C 171.146 321.712,171.607 322.088,143.151 298.078 C 131.461 288.214,121.971 279.899,122.063 279.601 C 122.380 278.578,142.664 256.209,143.275 256.209 C 143.611 256.209,147.027 258.658,150.865 261.652 M267.609 267.697 C 273.244 274.016,277.763 279.556,277.653 280.008 C 277.542 280.461,270.811 286.394,262.696 293.193 C 243.528 309.253,232.018 318.963,230.411 320.432 C 228.512 322.166,228.396 322.078,218.612 311.438 C 213.653 306.046,208.441 300.420,207.029 298.937 L 204.461 296.239 216.119 287.203 C 253.090 258.549,256.168 256.209,256.884 256.209 C 257.148 256.209,261.974 261.379,267.609 267.697 M133.042 297.386 C 138.346 301.879,149.317 311.125,157.421 317.932 L 172.157 330.308 177.555 324.495 C 180.523 321.298,183.132 318.862,183.352 319.082 C 184.626 320.356,183.642 356.114,181.975 369.121 L 181.618 371.902 117.770 371.735 L 53.922 371.569 53.740 352.614 C 53.455 322.865,56.871 313.425,70.875 305.251 L 74.103 303.367 76.757 304.717 C 87.074 309.962,101.307 326.416,101.307 333.097 C 101.307 334.417,102.205 334.605,105.047 333.884 L 107.728 333.204 106.550 329.780 C 103.297 320.324,96.654 311.659,87.038 304.328 C 82.469 300.845,82.316 300.644,83.770 300.025 C 84.608 299.668,91.765 297.149,99.673 294.427 C 107.582 291.705,115.523 288.935,117.320 288.272 C 121.173 286.851,119.382 285.813,133.042 297.386 M289.301 290.585 C 293.927 292.237,301.389 294.850,305.882 296.391 C 310.376 297.932,314.915 299.535,315.970 299.953 L 317.887 300.712 314.964 302.807 C 304.110 310.584,294.673 322.803,293.066 331.159 C 292.689 333.117,292.806 333.271,295.153 333.919 C 298.107 334.734,297.856 334.930,299.708 330.373 C 303.424 321.229,310.322 313.055,319.202 307.274 C 326.331 302.632,328.695 303.165,336.492 311.169 C 344.889 319.790,346.487 326.550,346.252 352.456 L 346.078 371.569 282.230 371.735 L 218.382 371.902 218.032 369.121 C 216.335 355.626,215.381 320.349,216.678 319.052 C 216.899 318.831,219.508 321.278,222.477 324.490 L 227.875 330.330 253.226 308.956 C 267.168 297.200,279.097 287.582,279.733 287.582 C 280.369 287.582,284.674 288.933,289.301 290.585 M206.090 306.825 L 211.787 312.997 211.117 316.139 C 209.630 323.119,211.066 322.343,199.999 322.145 L 190.243 321.970 189.223 317.482 L 188.202 312.995 193.877 306.824 C 200.703 299.403,199.237 299.403,206.090 306.825 M210.559 346.078 C 211.154 355.784,211.669 365.564,211.703 367.810 L 211.765 371.895 200.000 371.895 L 188.235 371.895 188.221 370.098 C 188.213 369.109,188.709 359.249,189.324 348.186 L 190.441 328.071 199.959 328.251 L 209.477 328.431 210.559 346.078 " stroke="none" fill="#000000" fill-rule="evenodd">
</path>
</g>
</svg>